<mxfile host="65bd71144e">
    <diagram id="VN5KpYFqFtBRQFTu0aOp" name="Page-1">
        <mxGraphModel dx="542" dy="337" grid="1" gridSize="10" guides="1" tooltips="1" connect="1" arrows="1" fold="1" page="1" pageScale="1" pageWidth="850" pageHeight="1100" math="0" shadow="0">
            <root>
                <mxCell id="0"/>
                <mxCell id="1" parent="0"/>
                <mxCell id="Mm0FE4l2zzhRZWlj46gT-1" value="&lt;div&gt;Referee&lt;/div&gt;" style="shape=umlActor;verticalLabelPosition=bottom;labelBackgroundColor=none;verticalAlign=top;html=1;outlineConnect=0;" parent="1" vertex="1">
                    <mxGeometry x="220" y="280" width="40" height="80" as="geometry"/>
                </mxCell>
                <mxCell id="Mm0FE4l2zzhRZWlj46gT-2" style="edgeStyle=orthogonalEdgeStyle;rounded=0;orthogonalLoop=1;jettySize=auto;html=1;exitX=1;exitY=0.5;exitDx=0;exitDy=0;entryX=0;entryY=0.5;entryDx=0;entryDy=0;" parent="1" source="Mm0FE4l2zzhRZWlj46gT-3" target="Mm0FE4l2zzhRZWlj46gT-5" edge="1">
                    <mxGeometry relative="1" as="geometry"/>
                </mxCell>
                <mxCell id="Mm0FE4l2zzhRZWlj46gT-3" value="&lt;div&gt;&lt;b&gt;rcj-dss&lt;/b&gt;&lt;/div&gt;&lt;div&gt;Digital Scoring Sheet&lt;/div&gt;" style="rounded=0;whiteSpace=wrap;html=1;" parent="1" vertex="1">
                    <mxGeometry x="300" y="290" width="120" height="60" as="geometry"/>
                </mxCell>
                <mxCell id="Mm0FE4l2zzhRZWlj46gT-5" value="&lt;div&gt;&lt;b&gt;rcj-server&lt;/b&gt;&lt;/div&gt;&lt;div&gt;Storing runs in database&lt;br&gt;&lt;/div&gt;" style="rounded=0;whiteSpace=wrap;html=1;" parent="1" vertex="1">
                    <mxGeometry x="460" y="290" width="120" height="60" as="geometry"/>
                </mxCell>
                <mxCell id="Mm0FE4l2zzhRZWlj46gT-6" value="&lt;div&gt;&lt;b&gt;evaluation&lt;/b&gt;&lt;/div&gt;&lt;div&gt;Fetching runs, calculating standings&lt;br&gt;&lt;/div&gt;" style="rounded=0;whiteSpace=wrap;html=1;" parent="1" vertex="1">
                    <mxGeometry x="540" y="390" width="120" height="60" as="geometry"/>
                </mxCell>
                <mxCell id="Mm0FE4l2zzhRZWlj46gT-7" value="&lt;div&gt;&lt;b&gt;rcjberlin.github.io&lt;/b&gt;&lt;/div&gt;&lt;div&gt;Displaying standings&lt;br&gt;&lt;b&gt;&lt;/b&gt;&lt;/div&gt;" style="rounded=0;whiteSpace=wrap;html=1;" parent="1" vertex="1">
                    <mxGeometry x="620" y="290" width="120" height="60" as="geometry"/>
                </mxCell>
                <mxCell id="Mm0FE4l2zzhRZWlj46gT-8" value="&lt;div&gt;Participants&lt;/div&gt;" style="shape=umlActor;verticalLabelPosition=bottom;labelBackgroundColor=none;verticalAlign=top;html=1;outlineConnect=0;" parent="1" vertex="1">
                    <mxGeometry x="780" y="280" width="40" height="80" as="geometry"/>
                </mxCell>
                <mxCell id="Mm0FE4l2zzhRZWlj46gT-9" value="" style="endArrow=classic;html=1;entryX=0;entryY=0.5;entryDx=0;entryDy=0;" parent="1" target="Mm0FE4l2zzhRZWlj46gT-3" edge="1">
                    <mxGeometry width="50" height="50" relative="1" as="geometry">
                        <mxPoint x="260" y="320" as="sourcePoint"/>
                        <mxPoint x="280" y="460" as="targetPoint"/>
                    </mxGeometry>
                </mxCell>
                <mxCell id="Mm0FE4l2zzhRZWlj46gT-10" value="" style="endArrow=classic;html=1;" parent="1" edge="1">
                    <mxGeometry width="50" height="50" relative="1" as="geometry">
                        <mxPoint x="560" y="350" as="sourcePoint"/>
                        <mxPoint x="560" y="390" as="targetPoint"/>
                    </mxGeometry>
                </mxCell>
                <mxCell id="Mm0FE4l2zzhRZWlj46gT-11" value="" style="endArrow=classic;html=1;" parent="1" edge="1">
                    <mxGeometry width="50" height="50" relative="1" as="geometry">
                        <mxPoint x="640" y="390" as="sourcePoint"/>
                        <mxPoint x="640" y="350" as="targetPoint"/>
                    </mxGeometry>
                </mxCell>
                <mxCell id="Mm0FE4l2zzhRZWlj46gT-12" value="" style="endArrow=classic;html=1;" parent="1" edge="1">
                    <mxGeometry width="50" height="50" relative="1" as="geometry">
                        <mxPoint x="780" y="319.58" as="sourcePoint"/>
                        <mxPoint x="740" y="319.58" as="targetPoint"/>
                    </mxGeometry>
                </mxCell>
                <mxCell id="Mm0FE4l2zzhRZWlj46gT-13" value="https://rcjberlin.github.io/rcj-dss" style="text;html=1;align=center;verticalAlign=middle;resizable=0;points=[];autosize=1;" parent="1" vertex="1">
                    <mxGeometry x="270" y="260" width="180" height="20" as="geometry"/>
                </mxCell>
                <mxCell id="Mm0FE4l2zzhRZWlj46gT-15" value="&lt;div&gt;https://rcjberlin.github.io&lt;/div&gt;" style="text;html=1;align=center;verticalAlign=middle;resizable=0;points=[];autosize=1;" parent="1" vertex="1">
                    <mxGeometry x="610" y="260" width="140" height="20" as="geometry"/>
                </mxCell>
                <mxCell id="Mm0FE4l2zzhRZWlj46gT-22" value="" style="endArrow=classic;html=1;" parent="1" edge="1">
                    <mxGeometry width="50" height="50" relative="1" as="geometry">
                        <mxPoint x="519.66" y="350" as="sourcePoint"/>
                        <mxPoint x="519.66" y="490" as="targetPoint"/>
                    </mxGeometry>
                </mxCell>
                <mxCell id="Mm0FE4l2zzhRZWlj46gT-24" value="" style="endArrow=classic;html=1;rounded=0;startArrow=none;" parent="1" edge="1" source="Mm0FE4l2zzhRZWlj46gT-21">
                    <mxGeometry width="50" height="50" relative="1" as="geometry">
                        <mxPoint x="500" y="520" as="sourcePoint"/>
                        <mxPoint x="800" y="390" as="targetPoint"/>
                        <Array as="points">
                            <mxPoint x="800" y="520"/>
                        </Array>
                    </mxGeometry>
                </mxCell>
                <mxCell id="Mm0FE4l2zzhRZWlj46gT-26" value="&lt;div style=&quot;font-size: 10px&quot;&gt;&lt;b&gt;&lt;font style=&quot;font-size: 10px&quot;&gt;schedule&lt;/font&gt;&lt;/b&gt;&lt;/div&gt;&lt;div style=&quot;font-size: 10px&quot;&gt;&lt;font style=&quot;font-size: 10px&quot;&gt;teams, runs, arenas, maps&lt;/font&gt;&lt;br&gt;&lt;/div&gt;" style="rounded=0;whiteSpace=wrap;html=1;" parent="1" vertex="1">
                    <mxGeometry x="430" y="360" width="80" height="40" as="geometry"/>
                </mxCell>
                <mxCell id="Mm0FE4l2zzhRZWlj46gT-27" value="" style="endArrow=classic;html=1;jumpSize=6;rounded=0;" parent="1" edge="1">
                    <mxGeometry width="50" height="50" relative="1" as="geometry">
                        <mxPoint x="430" y="380" as="sourcePoint"/>
                        <mxPoint x="359.5" y="350" as="targetPoint"/>
                        <Array as="points">
                            <mxPoint x="360" y="380"/>
                        </Array>
                    </mxGeometry>
                </mxCell>
                <mxCell id="Mm0FE4l2zzhRZWlj46gT-28" value="" style="endArrow=classic;html=1;" parent="1" edge="1">
                    <mxGeometry width="50" height="50" relative="1" as="geometry">
                        <mxPoint x="480.31" y="400" as="sourcePoint"/>
                        <mxPoint x="480" y="490" as="targetPoint"/>
                    </mxGeometry>
                </mxCell>
                <mxCell id="Mm0FE4l2zzhRZWlj46gT-21" value="&lt;b&gt;rcj-notification-bot&lt;/b&gt;&lt;div&gt;WhatsApp, Signal and Telegram Bot&lt;br&gt;&lt;/div&gt;" style="rounded=0;whiteSpace=wrap;html=1;" parent="1" vertex="1">
                    <mxGeometry x="440" y="490" width="120" height="60" as="geometry"/>
                </mxCell>
            </root>
        </mxGraphModel>
    </diagram>
</mxfile>